<?xml version="1.0" standalone="no"?>
<!DOCTYPE svg PUBLIC "-//W3C//DTD SVG 20010904//EN"
 "http://www.w3.org/TR/2001/REC-SVG-20010904/DTD/svg10.dtd">
<svg version="1.0" xmlns="http://www.w3.org/2000/svg"
 width="590.000000pt" height="590.000000pt" viewBox="0 0 590.000000 590.000000"
 preserveAspectRatio="xMidYMid meet">

<g transform="translate(0.000000,590.000000) scale(0.100000,-0.100000)"
fill="#000000" stroke="none">
<path d="M2685 5889 c-583 -54 -1129 -275 -1589 -643 -129 -103 -339 -313
-442 -442 -632 -790 -820 -1830 -504 -2784 145 -437 385 -826 715 -1155 742
-743 1806 -1032 2830 -770 502 129 965 395 1340 770 743 743 1032 1806 770
2830 -177 690 -620 1312 -1216 1708 -425 281 -879 441 -1389 487 -132 11 -384
11 -515 -1z m337 -2591 l3 -831 130 -55 c72 -29 134 -57 138 -62 12 -11 -123
-332 -137 -327 -6 3 -80 33 -164 68 -166 69 -215 102 -259 176 -53 90 -53 91
-53 1011 l0 852 170 0 170 0 2 -832z m-1134 422 c169 -41 305 -122 436 -261
63 -67 87 -102 131 -193 67 -139 80 -183 57 -195 -15 -7 -1505 -645 -1539
-658 -15 -6 -85 132 -112 222 -126 422 96 882 505 1046 110 44 182 57 319 58
87 1 143 -5 203 -19z m2592 -19 c247 -83 454 -280 538 -513 51 -143 64 -127
-133 -169 -93 -20 -173 -34 -177 -32 -5 2 -8 12 -8 22 0 10 -18 55 -40 99
-108 215 -348 320 -591 257 -24 -6 -28 -3 -43 37 -45 124 -96 273 -96 284 0
10 45 25 145 48 11 3 85 4 165 2 133 -2 153 -5 240 -35z m-716 -310 c101 -113
113 -131 100 -142 -36 -30 -108 -144 -130 -207 -26 -74 -32 -191 -13 -272 15
-65 63 -158 114 -220 l43 -53 -110 -128 c-60 -71 -115 -129 -123 -129 -17 0
-112 109 -158 182 -172 269 -178 610 -17 892 40 70 152 206 170 206 4 0 60
-58 124 -129z m-1595 -1000 l122 -129 -63 -52 c-73 -59 -234 -141 -328 -166
-91 -25 -330 -26 -418 -2 -79 22 -206 75 -233 97 -22 17 -21 17 66 157 48 76
91 143 95 148 5 4 33 -3 63 -18 155 -73 340 -61 484 33 33 21 64 44 67 50 4 6
11 11 15 11 5 0 63 -58 130 -129z"/>
<path d="M1605 3379 c-142 -21 -306 -142 -368 -272 -46 -95 -74 -267 -45 -267
10 0 443 182 832 349 58 25 56 29 -48 103 -107 75 -241 106 -371 87z"/>
</g>
</svg>
